<?xml version="1.0" encoding="UTF-8"?>
<svg id="Layer_2" data-name="Layer 2" xmlns="http://www.w3.org/2000/svg" viewBox="0 0 69.11 42.44">
  <defs>
    <style>
      .cls-1 {
        fill: #f3f4f3;
      }

      .cls-1, .cls-2 {
        stroke-width: 0px;
      }

      .cls-2 {
        fill: #49494b;
      }
    </style>
  </defs>
  <g id="Layer_1-2" data-name="Layer 1">
    <g>
      <path class="cls-2" d="m61.85,16.41c-.61,0-1.2.08-1.77.23.14-.53.22-1.09.22-1.66,0-3.58-2.9-6.48-6.48-6.48-1.47,0-2.82.49-3.91,1.32-.24-5.46-4.73-9.81-10.25-9.81-4.01,0-7.48,2.31-9.17,5.67,3.6,1.83,6.29,5.2,7.17,9.28,1.09-.44,2.25-.67,3.45-.67,5.08,0,9.21,4.13,9.21,9.21,0,.07,0,.14,0,.22.11,0,.23,0,.34,0,4.58,0,8.45,3.05,9.7,7.23h1.48c4.01,0,7.25-3.25,7.25-7.25s-3.25-7.25-7.25-7.25Z"/>
      <path class="cls-1" d="m50.67,25.19c-.73,0-1.43.1-2.1.27.17-.63.27-1.29.27-1.98,0-4.26-3.45-7.71-7.71-7.71-1.75,0-3.35.59-4.65,1.57-.29-6.49-5.63-11.67-12.19-11.67s-12.22,5.47-12.22,12.22c0,.71.07,1.41.19,2.09-.33-.03-.67-.05-1-.05-6.22,0-11.26,5.04-11.26,11.26s5.04,11.26,11.26,11.26h39.41c4.76,0,8.63-3.86,8.63-8.63s-3.86-8.63-8.63-8.63Z"/>
    </g>
  </g>
</svg>