<?xml version="1.0" encoding="UTF-8"?>
<svg id="Layer_2" data-name="Layer 2" xmlns="http://www.w3.org/2000/svg" viewBox="0 0 36.4 37.37">
  <defs>
    <style>
      .cls-1 {
        fill: #49494b;
        stroke-width: 0px;
      }
    </style>
  </defs>
  <g id="Layer_1-2" data-name="Layer 1">
    <path class="cls-1" d="m35.66,23.12c-.61-.35-1.39-.2-1.83.34-2.19,2.64-5.48,4.31-9.17,4.31-3.29,0-6.26-1.33-8.42-3.49-2.16-2.16-3.49-5.12-3.49-8.42,0-3.29,1.33-6.26,3.49-8.42,2.16-2.16,5.12-3.49,8.42-3.49.7,0,1.31-.51,1.43-1.2.12-.69-.27-1.37-.93-1.62C23.14.41,20.96,0,18.68,0,8.36,0,0,8.36,0,18.68c0,10.32,8.36,18.68,18.68,18.68,4.07,0,7.85-1.31,10.92-3.52,3.07-2.21,5.44-5.34,6.71-8.98.23-.66-.04-1.4-.66-1.74Z"/>
  </g>
</svg>