<?xml version="1.0" encoding="UTF-8"?>
<svg id="Layer_2" data-name="Layer 2" xmlns="http://www.w3.org/2000/svg" viewBox="0 0 41.63 41.54">
  <defs>
    <style>
      .cls-1 {
        fill: #ec6e4c;
        stroke-width: 0px;
      }
    </style>
  </defs>
  <g id="Layer_1-2" data-name="Layer 1">
    <g>
      <path class="cls-1" d="m22.49,8.35V1.63c0-.9-.73-1.63-1.63-1.63s-1.63.73-1.63,1.63v6.71c.52-.07,1.05-.11,1.58-.11.57,0,1.13.05,1.68.13Z"/>
      <path class="cls-1" d="m29.37,3.56c.33-.84-.09-1.79-.93-2.11s-1.79.09-2.11.93l-2.43,6.25c1.07.27,2.09.67,3.04,1.2l2.44-6.26Z"/>
      <path class="cls-1" d="m30.52,12.82l4.56-4.97c.61-.66.56-1.7-.1-2.31-.66-.61-1.7-.56-2.31.1l-4.54,4.95c.89.64,1.69,1.38,2.39,2.23Z"/>
      <path class="cls-1" d="m38.83,13.92c.81-.4,1.14-1.38.74-2.19-.4-.81-1.38-1.14-2.19-.74l-6.04,2.98c.59.91,1.06,1.9,1.4,2.95l6.08-3Z"/>
      <path class="cls-1" d="m33.32,21.54l6.82-.59c.9-.08,1.56-.87,1.48-1.77s-.87-1.56-1.77-1.48l-6.75.59c.16.81.25,1.64.25,2.49,0,.26-.02.51-.04.76Z"/>
      <path class="cls-1" d="m38.81,27.96c.87.25,1.77-.24,2.02-1.11s-.24-1.77-1.11-2.02l-6.56-1.92c-.19,1.09-.52,2.14-.97,3.12l6.62,1.93Z"/>
      <path class="cls-1" d="m29.53,29.78l5.5,4.23c.71.55,1.74.42,2.29-.3.55-.71.42-1.74-.3-2.29l-5.46-4.2c-.57.94-1.24,1.8-2.03,2.56Z"/>
      <path class="cls-1" d="m29.31,38.29c.47.77,1.47,1.02,2.24.55.77-.47,1.02-1.47.55-2.24l-3.59-5.93c-.86.67-1.79,1.23-2.81,1.66l3.61,5.96Z"/>
      <path class="cls-1" d="m22.43,40.19c.16.89,1,1.48,1.89,1.33.89-.16,1.48-1,1.33-1.89l-1.2-6.85c-1.02.31-2.11.48-3.22.52l1.21,6.9Z"/>
      <path class="cls-1" d="m15.33,39.48c-.18.88.4,1.74,1.28,1.92.88.18,1.74-.4,1.92-1.28l1.37-6.85c-1.11-.08-2.18-.31-3.2-.66l-1.37,6.87Z"/>
      <path class="cls-1" d="m8.97,36.24c-.49.76-.26,1.77.5,2.25.76.49,1.77.26,2.25-.5l3.76-5.88c-.99-.47-1.92-1.06-2.75-1.76l-3.76,5.89Z"/>
      <path class="cls-1" d="m4.21,30.91c-.73.53-.89,1.55-.35,2.28.53.73,1.55.89,2.28.35l5.62-4.11c-.75-.79-1.41-1.67-1.94-2.63l-5.61,4.1Z"/>
      <path class="cls-1" d="m1.72,24.22c-.87.23-1.39,1.13-1.16,2,.23.87,1.13,1.39,2,1.16l6.68-1.78c-.41-.99-.69-2.05-.84-3.15l-6.68,1.78Z"/>
      <path class="cls-1" d="m8.63,17.84l-6.82-.76c-.9-.1-1.7.55-1.8,1.44-.1.9.55,1.7,1.44,1.8l6.83.76c0-.11-.02-.21-.02-.31,0-1.01.13-1.99.36-2.93Z"/>
      <path class="cls-1" d="m4.49,10.46c-.8-.42-1.78-.11-2.2.69-.42.8-.11,1.78.69,2.2l6.05,3.16c.37-1.04.87-2.01,1.49-2.9l-6.03-3.15Z"/>
      <path class="cls-1" d="m13.83,10.35l-4.44-5.09c-.59-.68-1.62-.75-2.3-.16-.68.59-.75,1.62-.16,2.3l4.46,5.1c.72-.82,1.54-1.55,2.44-2.16Z"/>
      <path class="cls-1" d="m15.83,2.2c-.31-.85-1.24-1.29-2.09-.98-.85.31-1.29,1.24-.98,2.09l2.29,6.33c.96-.5,1.99-.87,3.07-1.11l-2.29-6.33Z"/>
      <path class="cls-1" d="m31.73,20.77c0-3.02-1.22-5.74-3.2-7.72-1.98-1.98-4.7-3.2-7.72-3.2-3.02,0-5.74,1.22-7.72,3.2-1.98,1.98-3.2,4.7-3.2,7.72,0,3.02,1.22,5.74,3.2,7.72,1.98,1.98,4.7,3.2,7.72,3.2,3.02,0,5.74-1.22,7.72-3.2,1.98-1.98,3.2-4.7,3.2-7.72Z"/>
    </g>
  </g>
</svg>