<?xml version="1.0" encoding="UTF-8"?>
<svg id="Layer_2" data-name="Layer 2" xmlns="http://www.w3.org/2000/svg" viewBox="0 0 63.21 42.98">
  <defs>
    <style>
      .cls-1 {
        fill: #f3f4f3;
      }

      .cls-1, .cls-2 {
        stroke-width: 0px;
      }

      .cls-2 {
        fill: #49494b;
      }
    </style>
  </defs>
  <g id="Layer_1-2" data-name="Layer 1">
    <g>
      <path class="cls-2" d="m63.19,19.62c.08-.38-.07-.76-.38-.98-.16-.11-.35-.17-.54-.17-.18,0-.36.05-.51.15-1.45.94-3.13,1.44-4.84,1.44-.16,0-.31,0-.47-.01-2.39-.12-4.58-1.17-6.18-2.95-1.6-1.77-2.41-4.07-2.29-6.45.18-3.44,2.27-6.42,5.47-7.77.35-.15.58-.5.58-.88,0-.38-.24-.73-.6-.87-1.64-.65-3.34-1.02-5.06-1.11-.28-.01-.57-.02-.85-.02-6.01,0-11.27,3.32-14.02,8.25,2.07,1.88,3.57,4.37,4.19,7.22,1.09-.44,2.25-.67,3.45-.67,5.08,0,9.21,4.13,9.21,9.21v.22c.11,0,.22,0,.34,0,3.11,0,5.89,1.41,7.75,3.62,2.33-2.15,4.04-4.99,4.77-8.22Z"/>
      <path class="cls-1" d="m50.67,25.72c-.73,0-1.43.1-2.1.27.17-.63.27-1.29.27-1.98,0-4.26-3.45-7.71-7.71-7.71-1.75,0-3.35.59-4.65,1.57-.29-6.49-5.63-11.67-12.19-11.67s-12.22,5.47-12.22,12.22c0,.71.07,1.41.19,2.09-.33-.03-.67-.05-1-.05-6.22,0-11.26,5.04-11.26,11.26s5.04,11.26,11.26,11.26h39.41c4.76,0,8.63-3.86,8.63-8.63s-3.86-8.63-8.63-8.63Z"/>
    </g>
  </g>
</svg>