<?xml version="1.0" encoding="UTF-8"?>
<svg id="Layer_2" data-name="Layer 2" xmlns="http://www.w3.org/2000/svg" viewBox="0 0 64.3 44.32">
  <defs>
    <style>
      .cls-1 {
        fill: #f3f4f3;
      }

      .cls-1, .cls-2 {
        stroke-width: 0px;
      }

      .cls-2 {
        fill: #ec6e4c;
      }
    </style>
  </defs>
  <g id="Layer_1-2" data-name="Layer 1">
    <g>
      <path class="cls-2" d="m45.4,7.48c.13,0,.26.01.39.02l-.62-6.15c-.08-.82-.82-1.43-1.64-1.34-.82.08-1.43.82-1.34,1.64l.61,6.14c.47-.11.95-.2,1.44-.25.39-.04.78-.06,1.16-.06Z"/>
      <path class="cls-2" d="m51.64,2.49c.22-.8-.25-1.63-1.04-1.85-.8-.22-1.63.25-1.85,1.04l-1.65,5.93c1.01.15,1.97.43,2.88.83l1.66-5.96Z"/>
      <path class="cls-2" d="m57.25,5.89c.5-.66.36-1.6-.3-2.1-.66-.5-1.6-.36-2.1.3l-3.69,4.94c.87.5,1.67,1.12,2.38,1.83l3.72-4.97Z"/>
      <path class="cls-2" d="m61.24,11.1c.7-.44.92-1.36.48-2.07-.44-.7-1.36-.92-2.07-.48l-5.25,3.28c.62.78,1.14,1.64,1.55,2.57l5.29-3.3Z"/>
      <path class="cls-2" d="m56.9,18.56l6.18-1.17c.81-.15,1.35-.94,1.2-1.75-.15-.81-.94-1.35-1.75-1.2l-6.12,1.15c.22.72.38,1.48.46,2.26.02.24.03.47.04.7Z"/>
      <path class="cls-2" d="m63.06,20.98l-6.17-1.15c-.07,1.02-.28,2-.6,2.94l6.23,1.16c.81.15,1.6-.39,1.75-1.2.15-.81-.39-1.6-1.2-1.75Z"/>
      <path class="cls-2" d="m58.21,28.95l1.39.87c.7.44,1.63.22,2.07-.48.44-.7.22-1.63-.48-2.07l-5.38-3.34c-.4.84-.89,1.62-1.47,2.33,1.5.58,2.82,1.51,3.87,2.69Z"/>
      <path class="cls-2" d="m35.43,11.78l.58.54c.58-.82,1.27-1.55,2.05-2.19l-4.54-4.25c-.6-.57-1.55-.54-2.12.07-.57.6-.54,1.55.07,2.12l.06.06c1.53.95,2.86,2.19,3.9,3.66Z"/>
      <path class="cls-2" d="m39.14,2.48c-.36-.75-1.25-1.06-2-.7-.75.36-1.06,1.25-.7,2l2.67,5.57c.83-.54,1.74-.98,2.71-1.29l-2.67-5.58Z"/>
      <path class="cls-2" d="m55.42,19.02c0-.33-.02-.67-.05-1.01-.52-5.17-4.88-9.03-9.97-9.03-.33,0-.67.02-1.01.05-3.33.33-6.12,2.27-7.68,4.96.41.89.74,1.84.96,2.82,1.09-.44,2.25-.67,3.45-.67,5.08,0,9.21,4.13,9.21,9.21v.22c.11,0,.22,0,.34,0,.72,0,1.43.08,2.11.22,1.65-1.8,2.64-4.19,2.64-6.77Z"/>
      <path class="cls-1" d="m50.67,27.06c-.73,0-1.43.1-2.1.27.17-.63.27-1.29.27-1.98,0-4.26-3.45-7.71-7.71-7.71-1.75,0-3.35.59-4.65,1.57-.29-6.49-5.63-11.67-12.19-11.67s-12.22,5.47-12.22,12.22c0,.71.07,1.41.19,2.09-.33-.03-.67-.05-1-.05-6.22,0-11.26,5.04-11.26,11.26s5.04,11.26,11.26,11.26h39.41c4.76,0,8.63-3.86,8.63-8.63s-3.86-8.63-8.63-8.63Z"/>
    </g>
  </g>
</svg>