<?xml version="1.0" encoding="UTF-8"?>
<svg id="Layer_2" data-name="Layer 2" xmlns="http://www.w3.org/2000/svg" viewBox="0 0 49.58 50.29">
  <defs>
    <style>
      .cls-1 {
        fill: #f3f4f3;
      }

      .cls-1, .cls-2, .cls-3 {
        stroke-width: 0px;
      }

      .cls-2 {
        fill: #49494b;
      }

      .cls-3 {
        fill: #ec6e4c;
      }
    </style>
  </defs>
  <g id="Layer_1-2" data-name="Layer 1">
    <g>
      <path class="cls-3" d="m35.01,5.77c.1,0,.2.01.3.01l-.47-4.74c-.06-.64-.63-1.1-1.27-1.04s-1.1.63-1.04,1.27l.47,4.73c.36-.08.73-.15,1.11-.19.3-.03.6-.04.9-.04Z"/>
      <path class="cls-3" d="m39.82,1.92c.17-.62-.19-1.25-.8-1.42-.62-.17-1.25.19-1.42.8l-1.27,4.57c.78.12,1.52.33,2.22.64l1.28-4.59Z"/>
      <path class="cls-3" d="m44.14,4.54c.38-.51.28-1.24-.23-1.62-.51-.38-1.24-.28-1.62.23l-2.85,3.81c.67.39,1.29.86,1.83,1.41l2.87-3.83Z"/>
      <path class="cls-3" d="m47.22,8.56c.54-.34.71-1.05.37-1.59-.34-.54-1.05-.71-1.59-.37l-4.05,2.53c.48.6.88,1.27,1.19,1.98l4.08-2.55Z"/>
      <path class="cls-3" d="m43.87,14.31l4.77-.9c.63-.12,1.04-.72.92-1.35-.12-.63-.72-1.04-1.35-.92l-4.72.89c.17.56.29,1.14.35,1.74.02.18.02.36.03.54Z"/>
      <path class="cls-3" d="m48.62,16.18l-4.76-.89c-.06.79-.22,1.54-.47,2.27l4.8.9c.63.12,1.23-.3,1.35-.92.12-.63-.3-1.23-.92-1.35Z"/>
      <path class="cls-3" d="m44.88,22.32l1.07.67c.54.34,1.26.17,1.59-.37.34-.54.17-1.26-.37-1.59l-4.15-2.57c-.31.64-.69,1.25-1.13,1.8,1.15.45,2.17,1.17,2.98,2.07Z"/>
      <path class="cls-3" d="m27.32,9.08l.45.42c.45-.63.98-1.2,1.58-1.69l-3.5-3.28c-.47-.44-1.2-.41-1.63.05s-.41,1.2.05,1.63l.05.04c1.18.73,2.2,1.69,3.01,2.82Z"/>
      <path class="cls-3" d="m30.18,1.91c-.28-.58-.97-.82-1.54-.54-.58.28-.82.97-.54,1.54l2.06,4.3c.64-.42,1.34-.75,2.09-1l-2.06-4.3Z"/>
      <path class="cls-3" d="m42.73,14.67c0-.26-.01-.52-.04-.78-.4-3.99-3.76-6.96-7.68-6.96-.26,0-.52.01-.78.04-2.57.26-4.72,1.75-5.92,3.83.32.69.57,1.42.74,2.18.84-.34,1.74-.52,2.66-.52,3.92,0,7.1,3.19,7.1,7.1v.17s.26,0,.26,0c.56,0,1.1.06,1.63.17,1.27-1.39,2.04-3.23,2.04-5.22Z"/>
      <path class="cls-1" d="m39.07,20.87c-.56,0-1.1.08-1.62.21.13-.49.21-1,.21-1.53,0-3.28-2.66-5.94-5.94-5.94-1.35,0-2.59.45-3.58,1.21-.22-5-4.34-9-9.4-9s-9.42,4.22-9.42,9.42c0,.55.06,1.09.15,1.61-.26-.02-.51-.04-.77-.04-4.79,0-8.68,3.89-8.68,8.68s3.89,8.68,8.68,8.68h3.11l1.16-1.91c.46-.75,1.26-1.2,2.14-1.2h0c.46,0,.91.13,1.3.36.96.58,1.37,1.71,1.11,2.75h21.57c3.67,0,6.65-2.98,6.65-6.65s-2.98-6.65-6.65-6.65Z"/>
      <path class="cls-2" d="m16.38,34.34c.43-.71.21-1.63-.5-2.06-.24-.15-.51-.22-.78-.22-.51,0-1,.26-1.28.72l-1.31,2.16c-.43.71-.21,1.63.5,2.06.24.15.51.22.78.22.51,0,1-.26,1.28-.72l1.31-2.16Z"/>
      <path class="cls-2" d="m21.59,38.94c-.71-.43-1.63-.21-2.06.5l-1.31,2.16c-.43.71-.21,1.63.5,2.06.24.15.51.22.78.22.51,0,1-.26,1.28-.72l1.31-2.16c.43-.71.21-1.63-.5-2.06Z"/>
      <path class="cls-2" d="m12.87,40.01c-.71-.43-1.63-.21-2.06.5l-1.31,2.16c-.43.71-.21,1.63.5,2.06.24.15.51.22.78.22.51,0,1-.26,1.28-.72l1.31-2.16c.43-.71.21-1.63-.5-2.06Z"/>
      <path class="cls-2" d="m27.33,45.36c-.71-.43-1.63-.21-2.06.5l-1.31,2.16c-.43.71-.21,1.63.5,2.06.24.15.51.22.78.22.51,0,1-.26,1.28-.72l1.31-2.16c.43-.71.21-1.63-.5-2.06Z"/>
      <path class="cls-2" d="m30.64,37.22c-.71-.43-1.63-.21-2.06.5l-.76,1.24c-.43.71-.21,1.63.5,2.06.24.15.51.22.78.22.51,0,1-.26,1.28-.72l.76-1.24c.43-.71.21-1.63-.5-2.06Z"/>
      <path class="cls-2" d="m18.83,45.81c-.71-.43-1.63-.21-2.06.5l-.76,1.24c-.43.71-.21,1.63.5,2.06.24.15.51.22.78.22.51,0,1-.26,1.28-.72l.76-1.24c.43-.71.21-1.63-.5-2.06Z"/>
    </g>
  </g>
</svg>