<?xml version="1.0" encoding="UTF-8"?>
<svg id="Layer_2" data-name="Layer 2" xmlns="http://www.w3.org/2000/svg" viewBox="0 0 49.65 49.88">
  <defs>
    <style>
      .cls-1 {
        fill: #f3f4f3;
      }

      .cls-1, .cls-2 {
        stroke-width: 0px;
      }

      .cls-2 {
        fill: #49494b;
      }
    </style>
  </defs>
  <g id="Layer_1-2" data-name="Layer 1">
    <g>
      <path class="cls-2" d="m49.64,15.41c.07-.29-.05-.6-.3-.77-.13-.09-.28-.13-.43-.13-.14,0-.28.04-.4.12-1.14.74-2.46,1.13-3.81,1.13-.12,0-.24,0-.37,0-3.87-.2-6.85-3.51-6.65-7.38.14-2.71,1.79-5.04,4.29-6.1.28-.12.46-.39.45-.69,0-.3-.19-.57-.47-.68-1.29-.51-2.62-.8-3.98-.87-.22-.01-.45-.02-.67-.02-4.72,0-8.85,2.61-11.02,6.48,1.63,1.47,2.81,3.44,3.29,5.67.85-.35,1.77-.53,2.71-.53,3.99,0,7.23,3.24,7.23,7.23v.17s.26,0,.26,0c2.44,0,4.63,1.11,6.09,2.84,1.83-1.69,3.17-3.92,3.75-6.46Z"/>
      <path class="cls-1" d="m46.58,26.98c0-3.74-3.03-6.78-6.78-6.78-.57,0-1.12.08-1.65.21.13-.5.21-1.02.21-1.55,0-3.34-2.71-6.06-6.06-6.06-1.37,0-2.63.46-3.65,1.23-.23-5.1-4.42-9.16-9.58-9.16s-9.6,4.3-9.6,9.6c0,.56.06,1.11.15,1.64-.26-.02-.52-.04-.79-.04-4.88,0-8.84,3.96-8.84,8.84s3.96,8.84,8.84,8.84h3.59l1.16-1.91c.46-.75,1.26-1.2,2.14-1.2h0c.46,0,.91.13,1.3.36.96.58,1.37,1.71,1.11,2.75h21.66c3.74,0,6.78-3.03,6.78-6.78Z"/>
      <path class="cls-2" d="m17.01,33.93c.43-.71.21-1.63-.5-2.06-.24-.15-.51-.22-.78-.22-.51,0-1,.26-1.28.72l-1.31,2.16c-.43.71-.21,1.63.5,2.06.24.15.51.22.78.22.51,0,1-.26,1.28-.72l1.31-2.16Z"/>
      <path class="cls-2" d="m22.23,38.52c-.71-.43-1.63-.21-2.06.5l-1.31,2.16c-.43.71-.21,1.63.5,2.06.24.15.51.22.78.22.51,0,1-.26,1.28-.72l1.31-2.16c.43-.71.21-1.63-.5-2.06Z"/>
      <path class="cls-2" d="m13.51,39.6c-.71-.43-1.63-.21-2.06.5l-1.31,2.16c-.43.71-.21,1.63.5,2.06.24.15.51.22.78.22.51,0,1-.26,1.28-.72l1.31-2.16c.43-.71.21-1.63-.5-2.06Z"/>
      <path class="cls-2" d="m27.97,44.94c-.71-.43-1.63-.21-2.06.5l-1.31,2.16c-.43.71-.21,1.63.5,2.06.24.15.51.22.78.22.51,0,1-.26,1.28-.72l1.31-2.16c.43-.71.21-1.63-.5-2.06Z"/>
      <path class="cls-2" d="m31.28,36.81c-.71-.43-1.63-.21-2.06.5l-.76,1.24c-.43.71-.21,1.63.5,2.06.24.15.51.22.78.22.51,0,1-.26,1.28-.72l.76-1.24c.43-.71.21-1.63-.5-2.06Z"/>
      <path class="cls-2" d="m19.47,45.4c-.71-.43-1.63-.21-2.06.5l-.76,1.24c-.43.71-.21,1.63.5,2.06.24.15.51.22.78.22.51,0,1-.26,1.28-.72l.76-1.24c.43-.71.21-1.63-.5-2.06Z"/>
    </g>
  </g>
</svg>