<?xml version="1.0" encoding="UTF-8"?>
<svg id="Layer_2" data-name="Layer 2" xmlns="http://www.w3.org/2000/svg" viewBox="0 0 59.3 36.77">
  <defs>
    <style>
      .cls-1 {
        fill: #f3f4f3;
        stroke-width: 0px;
      }
    </style>
  </defs>
  <g id="Layer_1-2" data-name="Layer 1">
    <path class="cls-1" d="m50.67,19.52c-.73,0-1.43.1-2.1.27.17-.63.27-1.29.27-1.98,0-4.26-3.45-7.71-7.71-7.71-1.75,0-3.35.59-4.65,1.57-.29-6.49-5.63-11.67-12.19-11.67s-12.22,5.47-12.22,12.22c0,.71.07,1.41.19,2.09-.33-.03-.67-.05-1-.05C5.04,14.26,0,19.3,0,25.51s5.04,11.26,11.26,11.26h39.41c4.76,0,8.63-3.86,8.63-8.63s-3.86-8.63-8.63-8.63Z"/>
  </g>
</svg>