<?xml version="1.0" encoding="UTF-8"?>
<svg id="Layer_2" data-name="Layer 2" xmlns="http://www.w3.org/2000/svg" viewBox="0 0 53.67 49.04">
  <defs>
    <style>
      .cls-1 {
        fill: #f3f4f3;
      }

      .cls-1, .cls-2 {
        stroke-width: 0px;
      }

      .cls-2 {
        fill: #49494b;
      }
    </style>
  </defs>
  <g id="Layer_1-2" data-name="Layer 1">
    <g>
      <path class="cls-2" d="m48.03,12.74c-.47,0-.93.07-1.37.18.11-.41.17-.84.17-1.29,0-2.78-2.25-5.03-5.03-5.03-1.14,0-2.19.38-3.03,1.02-.19-4.24-3.68-7.62-7.96-7.62-3.12,0-5.81,1.79-7.12,4.4,2.79,1.42,4.88,4.04,5.57,7.2.84-.34,1.75-.52,2.68-.52,3.94,0,7.15,3.21,7.15,7.15v.17s.26,0,.26,0c3.55,0,6.56,2.37,7.53,5.61h1.15c3.11,0,5.63-2.52,5.63-5.63s-2.52-5.63-5.63-5.63Z"/>
      <path class="cls-1" d="m39.35,19.56c-.56,0-1.11.08-1.63.21.13-.49.21-1,.21-1.54,0-3.31-2.68-5.99-5.99-5.99-1.36,0-2.6.46-3.61,1.22-.23-5.04-4.37-9.06-9.47-9.06s-9.49,4.25-9.49,9.49c0,.55.06,1.09.15,1.62-.26-.02-.52-.04-.78-.04C3.91,15.48,0,19.39,0,24.22s3.91,8.74,8.74,8.74h3.31l1.19-1.96c.46-.75,1.26-1.2,2.14-1.2h0c.46,0,.91.13,1.3.36.97.59,1.39,1.74,1.1,2.79h21.57c3.7,0,6.7-3,6.7-6.7s-3-6.7-6.7-6.7Z"/>
      <path class="cls-2" d="m16.16,31.02c-.24-.15-.51-.22-.78-.22-.51,0-1,.26-1.28.72l-1.31,2.16c-.43.71-.21,1.63.5,2.06.24.15.51.22.78.22.51,0,1-.26,1.28-.72l1.31-2.16c.43-.71.21-1.63-.5-2.06Z"/>
      <path class="cls-2" d="m21.88,37.68c-.71-.43-1.63-.21-2.06.5l-1.31,2.16c-.43.71-.21,1.63.5,2.06.24.15.51.22.78.22.51,0,1-.26,1.28-.72l1.31-2.16c.43-.71.21-1.63-.5-2.06Z"/>
      <path class="cls-2" d="m13.16,38.76c-.71-.43-1.63-.21-2.06.5l-1.31,2.16c-.43.71-.21,1.63.5,2.06.24.15.51.22.78.22.51,0,1-.26,1.28-.72l1.31-2.16c.43-.71.21-1.63-.5-2.06Z"/>
      <path class="cls-2" d="m27.61,44.1c-.71-.43-1.63-.21-2.06.5l-1.31,2.16c-.43.71-.21,1.63.5,2.06.24.15.51.22.78.22.51,0,1-.26,1.28-.72l1.31-2.16c.43-.71.21-1.63-.5-2.06Z"/>
      <path class="cls-2" d="m30.93,35.96c-.71-.43-1.63-.21-2.06.5l-.76,1.24c-.43.71-.21,1.63.5,2.06.24.15.51.22.78.22.51,0,1-.26,1.28-.72l.76-1.24c.43-.71.21-1.63-.5-2.06Z"/>
      <path class="cls-2" d="m19.11,44.56c-.71-.43-1.63-.21-2.06.5l-.76,1.24c-.43.71-.21,1.63.5,2.06.24.15.51.22.78.22.51,0,1-.26,1.28-.72l.76-1.24c.43-.71.21-1.63-.5-2.06Z"/>
    </g>
  </g>
</svg>