<?xml version="1.0" encoding="UTF-8"?>
<svg id="Layer_2" data-name="Layer 2" xmlns="http://www.w3.org/2000/svg" viewBox="0 0 37.44 42.24">
  <defs>
    <style>
      .cls-1 {
        fill: #49494b;
        stroke-width: 0px;
      }
    </style>
  </defs>
  <g id="Layer_1-2" data-name="Layer 1">
    <path class="cls-1" d="m37.36,22.76c-.27-.78-1.13-1.19-1.91-.92l-7.62,2.66-3.18-1.75v-3.26l3.18-1.75,7.62,2.66c.78.27,1.64-.14,1.91-.92.27-.78-.14-1.64-.92-1.91l-5.09-1.78,5.21-2.87c.73-.4.99-1.31.59-2.04-.4-.73-1.31-.99-2.04-.59l-5.13,2.83,1.14-5.22c.18-.81-.34-1.61-1.15-1.79-.81-.18-1.61.34-1.79,1.15h0s-1.7,7.79-1.7,7.79l-3.23,1.78-3.04-1.75v-3.6l6.01-5.39c.62-.55.67-1.5.12-2.12s-1.5-.67-2.12-.12l-4.01,3.6V1.5c0-.83-.67-1.5-1.5-1.5s-1.5.67-1.5,1.5v5.86l-4.02-3.52c-.62-.55-1.57-.48-2.12.14s-.48,1.57.14,2.12h0l6,5.25v3.73l-3.05,1.76-3.12-1.71-1.83-7.86c-.19-.81-.99-1.31-1.8-1.12-.81.19-1.31.99-1.12,1.8l1.22,5.25-5.21-2.86c-.73-.4-1.64-.13-2.04.59-.4.73-.13,1.64.59,2.04l5.13,2.82-5.02,1.83c-.78.28-1.18,1.15-.89,1.92s1.15,1.18,1.92.89l7.49-2.73,3.3,1.81v3.23l-3.3,1.81-7.49-2.73c-.78-.28-1.64.12-1.92.89s.12,1.64.89,1.92l5.02,1.83-5.13,2.82c-.73.4-.99,1.31-.59,2.04.4.73,1.31.99,2.04.59l5.21-2.86-1.22,5.25c-.19.81.31,1.61,1.12,1.8.81.19,1.61-.31,1.8-1.12l1.83-7.86,3.26-1.79,2.91,1.68v3.89l-6,5.25c-.62.55-.69,1.49-.14,2.12.55.62,1.49.69,2.12.14l4.02-3.52v5.86c0,.83.67,1.5,1.5,1.5s1.5-.67,1.5-1.5v-5.94l4.01,3.6c.62.55,1.57.5,2.12-.12.55-.62.5-1.57-.12-2.12l-6.01-5.39v-3.76l2.89-1.67,3.37,1.86,1.7,7.79c.18.81.98,1.32,1.79,1.15.81-.18,1.32-.98,1.15-1.79h0s-1.14-5.22-1.14-5.22l5.13,2.83c.73.4,1.64.14,2.04-.59s.14-1.64-.59-2.04l-5.21-2.87,5.09-1.78c.78-.27,1.19-1.13.92-1.91Zm-18.63,1.65l-2.92-1.68v-3.37l2.92-1.68,2.92,1.68v3.37l-2.92,1.68Z"/>
  </g>
</svg>