<?xml version="1.0" encoding="UTF-8"?>
<svg id="Layer_2" data-name="Layer 2" xmlns="http://www.w3.org/2000/svg" viewBox="0 0 64.87 53.14">
  <defs>
    <style>
      .cls-1 {
        fill: #f3f4f3;
      }

      .cls-1, .cls-2, .cls-3 {
        stroke-width: 0px;
      }

      .cls-2 {
        fill: #49494b;
      }

      .cls-3 {
        fill: #ec6e4c;
      }
    </style>
  </defs>
  <g id="Layer_1-2" data-name="Layer 1">
    <g>
      <path class="cls-2" d="m58.06,15.4c-.57,0-1.13.08-1.66.21.13-.5.21-1.02.21-1.56,0-3.36-2.72-6.08-6.08-6.08-1.38,0-2.65.46-3.67,1.24-.23-5.12-4.44-9.21-9.62-9.21-3.77,0-7.02,2.17-8.61,5.32,3.38,1.72,5.9,4.88,6.74,8.71,1.02-.42,2.11-.63,3.24-.63,4.77,0,8.64,3.88,8.64,8.64v.2c.1,0,.21,0,.32,0,4.3,0,7.93,2.87,9.11,6.79h1.39c3.76,0,6.81-3.05,6.81-6.81s-3.05-6.81-6.81-6.81Z"/>
      <path class="cls-1" d="m47.56,23.65c-.68,0-1.34.09-1.97.25.16-.59.25-1.21.25-1.86,0-4-3.24-7.24-7.24-7.24-1.64,0-3.15.55-4.36,1.47-.27-6.09-5.28-10.95-11.44-10.95s-11.47,5.14-11.47,11.47c0,.67.07,1.32.18,1.96-.31-.03-.62-.05-.94-.05-5.84,0-10.57,4.73-10.57,10.57s4.73,10.57,10.57,10.57h3l4.95-10.22c.25-.52.77-.85,1.35-.85h6.75c.83,0,1.5.67,1.5,1.5,0,.33-.11.63-.28.88l-3.82,5.83,2.62.04c.58,0,1.11.35,1.35.88.24.53.15,1.15-.23,1.59l-.29.33h20.1c4.47,0,8.1-3.63,8.1-8.1s-3.63-8.1-8.1-8.1Z"/>
      <polygon class="cls-3" points="26.62 38.53 21.27 38.45 26.62 30.28 19.87 30.28 14.06 42.28 18.65 42.28 14.06 53.14 26.62 38.53"/>
    </g>
  </g>
</svg>