<?xml version="1.0" standalone="no"?>
<!DOCTYPE svg PUBLIC "-//W3C//DTD SVG 20010904//EN"
 "http://www.w3.org/TR/2001/REC-SVG-20010904/DTD/svg10.dtd">
<svg version="1.0" xmlns="http://www.w3.org/2000/svg"
 width="200.000000pt" height="200.000000pt" viewBox="0 0 200.000000 200.000000"
 preserveAspectRatio="xMidYMid meet">

<g transform="translate(0.000000,200.000000) scale(0.100000,-0.100000)"
fill="#000000" stroke="none">
<path d="M1113 1902 c5 -27 4 -28 -23 -24 -37 5 -53 -24 -25 -44 17 -13 17
-14 -11 -14 -17 0 -39 -6 -50 -14 -18 -14 -18 -15 9 -25 16 -6 44 -11 63 -11
29 0 34 -3 30 -17 -20 -66 -37 -169 -46 -275 -6 -67 -13 -132 -16 -143 -17
-54 -71 -72 -114 -37 -17 14 -23 34 -31 97 -12 97 -40 186 -73 230 -67 87
-208 87 -323 -1 -33 -25 -98 -112 -90 -120 2 -2 28 12 58 32 59 40 131 74 157
74 9 0 -4 -13 -29 -29 -45 -29 -83 -66 -112 -111 -31 -45 -19 -51 33 -16 44
30 157 77 184 76 6 -1 -7 -10 -29 -22 -41 -21 -85 -56 -85 -68 0 -4 18 -2 40
4 73 19 96 -20 65 -110 -9 -27 -19 -76 -22 -111 -5 -54 -2 -69 21 -118 31 -63
56 -84 176 -150 97 -53 134 -84 161 -137 34 -66 31 -68 -80 -68 l-99 0 -36 45
-37 45 -124 0 c-68 0 -126 -4 -129 -9 -3 -5 10 -29 29 -54 19 -25 35 -48 35
-50 0 -2 -15 -24 -34 -48 -19 -23 -32 -47 -30 -51 3 -4 63 -8 133 -8 l127 0
34 45 34 45 103 0 103 0 0 -63 c0 -58 -2 -65 -25 -75 -64 -29 -69 -122 -10
-169 l35 -28 0 -132 0 -133 25 0 25 0 0 133 0 132 34 27 c19 15 37 41 41 57 8
39 -17 98 -49 113 -24 10 -26 16 -26 75 l0 63 125 0 c117 0 125 -1 125 -19 0
-11 -4 -31 -9 -44 -6 -14 -7 -27 -5 -30 7 -7 237 97 241 109 3 8 -219 114
-239 114 -4 0 -2 -15 3 -32 17 -59 19 -58 -111 -58 -132 0 -132 0 -105 63 23
56 61 93 164 161 145 95 173 135 173 243 -1 78 -25 134 -99 227 -31 39 -61 77
-66 83 -6 8 2 7 22 -3 23 -12 35 -13 51 -4 36 19 21 52 -35 80 -40 20 -51 31
-53 53 -3 24 2 30 40 46 28 13 36 20 23 20 -11 1 -27 5 -35 11 -11 7 -4 13 30
28 l45 20 -28 11 c-16 6 -39 11 -52 11 -19 0 -30 11 -49 49 -29 56 -53 84 -67
75 -5 -3 -7 -15 -3 -27 6 -19 4 -19 -25 6 -44 36 -65 36 -58 -1z"/>
</g>
</svg>
